{
	"asset":{
		"version":"2.0",
		"generator":"Created using the official Cinema 4D glTF Exporter 1.000x284978"
	},
	"scenes":[{
		"nodes":[0]
	}],
	"nodes":[{
		"name":"Avion/S",
		"translation":[0.0,
		46.038944244384769,
		0.0],
		"rotation":[0.0,
		0.0,
		0.0,
		-1.0],
		"scale":[1.0,
		1.0,
		1.0],
		"children":[1,
		7]
	},
	{
		"name":"avion,aileron",
		"children":[2,
		3]
	},
	{
		"name":"ailerons",
		"translation":[5.8742170333862309,
		2.914525270462036,
		21.883647918701173],
		"rotation":[0.0,
		0.0,
		0.0,
		-1.0],
		"scale":[1.0,
		1.0,
		1.0],
		"mesh":0
	},
	{
		"name":"avion",
		"children":[4,
		5,
		6]
	},
	{
		"name":"avion-Avion ",
		"mesh":1
	},
	{
		"name":"avion-Mat",
		"mesh":2
	},
	{
		"name":"avion-Vitre",
		"mesh":3
	},
	{
		"name":"avion,aileron",
		"children":[8]
	},
	{
		"name":"avion",
		"translation":[0.0,
		0.0,
		0.0],
		"rotation":[0.0,
		0.0,
		0.0,
		-1.0],
		"scale":[1.0,
		1.0,
		1.0]
	}],
	"meshes":[{
		"primitives":[{
			"attributes":{
				"POSITION":1,
				"NORMAL":2
			},
			"indices":0,
			"material":0
		}],
		"name":"ailerons"
	},
	{
		"primitives":[{
			"attributes":{
				"POSITION":4,
				"NORMAL":5
			},
			"indices":3,
			"material":0
		}],
		"name":"avion-Avion "
	},
	{
		"primitives":[{
			"attributes":{
				"POSITION":7,
				"NORMAL":8
			},
			"indices":6,
			"material":1
		}],
		"name":"avion-Mat"
	},
	{
		"primitives":[{
			"attributes":{
				"POSITION":10,
				"NORMAL":11
			},
			"indices":9,
			"material":2
		}],
		"name":"avion-Vitre"
	}],
	"accessors":[{
		"bufferView":0,
		"type":"SCALAR",
		"componentType":5123,
		"count":72,
		"byteOffset":0,
		"min":[0],
		"max":[47]
	},
	{
		"bufferView":1,
		"type":"VEC3",
		"componentType":5126,
		"count":48,
		"byteOffset":0,
		"min":[-98.75736236572266,
		-0.31035393476486208,
		-287.24346923828127],
		"max":[87.00892639160156,
		78.61740112304688,
		-184.2774658203125]
	},
	{
		"bufferView":1,
		"type":"VEC3",
		"componentType":5126,
		"count":48,
		"byteOffset":12,
		"min":[-0.9543337821960449,
		-0.9243757128715515,
		-0.9874419569969177],
		"max":[0.9543337821960449,
		0.9243677854537964,
		0.7640897631645203]
	},
	{
		"bufferView":2,
		"type":"SCALAR",
		"componentType":5123,
		"count":630,
		"byteOffset":0,
		"min":[0],
		"max":[580]
	},
	{
		"bufferView":3,
		"type":"VEC3",
		"componentType":5126,
		"count":581,
		"byteOffset":0,
		"min":[-286.47283935546877,
		-30.83653450012207,
		-291.97222900390627],
		"max":[286.47283935546877,
		25.234724044799806,
		360.78533935546877]
	},
	{
		"bufferView":3,
		"type":"VEC3",
		"componentType":5126,
		"count":581,
		"byteOffset":12,
		"min":[-1.0,
		-1.0,
		-0.9999999403953552],
		"max":[1.0,
		1.0,
		1.0]
	},
	{
		"bufferView":4,
		"type":"SCALAR",
		"componentType":5123,
		"count":24,
		"byteOffset":0,
		"min":[0],
		"max":[23]
	},
	{
		"bufferView":5,
		"type":"VEC3",
		"componentType":5126,
		"count":24,
		"byteOffset":0,
		"min":[-56.55911636352539,
		-17.488330841064454,
		-241.6531982421875],
		"max":[56.55911636352539,
		20.466127395629884,
		-213.30816650390626]
	},
	{
		"bufferView":5,
		"type":"VEC3",
		"componentType":5126,
		"count":24,
		"byteOffset":12,
		"min":[-0.5265406370162964,
		0.002963046543300152,
		-0.9466797113418579],
		"max":[0.5265406370162964,
		0.0203506238758564,
		-0.8501366376876831]
	},
	{
		"bufferView":6,
		"type":"SCALAR",
		"componentType":5123,
		"count":12,
		"byteOffset":0,
		"min":[0],
		"max":[11]
	},
	{
		"bufferView":7,
		"type":"VEC3",
		"componentType":5126,
		"count":12,
		"byteOffset":0,
		"min":[-21.79509925842285,
		0.35109075903892519,
		263.2521057128906],
		"max":[21.79509925842285,
		8.788862228393555,
		291.10064697265627]
	},
	{
		"bufferView":7,
		"type":"VEC3",
		"componentType":5126,
		"count":12,
		"byteOffset":12,
		"min":[-0.1293364316225052,
		0.9489973187446594,
		0.18550193309783936],
		"max":[0.1293364316225052,
		0.9826329350471497,
		0.2875347435474396]
	},
	{
		"bufferView":8,
		"type":"SCALAR",
		"componentType":5126,
		"count":2,
		"byteOffset":0,
		"min":[0.0],
		"max":[3.0]
	},
	{
		"bufferView":8,
		"type":"VEC3",
		"componentType":5126,
		"count":2,
		"byteOffset":8,
		"min":[0.0,
		0.0,
		0.0],
		"max":[0.0,
		0.0,
		0.0]
	},
	{
		"bufferView":9,
		"type":"SCALAR",
		"componentType":5126,
		"count":2,
		"byteOffset":0,
		"min":[0.0],
		"max":[3.0]
	},
	{
		"bufferView":9,
		"type":"VEC4",
		"componentType":5126,
		"count":2,
		"byteOffset":8,
		"min":[0.0,
		0.0,
		0.0,
		-1.0],
		"max":[0.0,
		0.0,
		0.0,
		-1.0]
	},
	{
		"bufferView":10,
		"type":"SCALAR",
		"componentType":5126,
		"count":2,
		"byteOffset":0,
		"min":[0.0],
		"max":[3.0]
	},
	{
		"bufferView":10,
		"type":"VEC3",
		"componentType":5126,
		"count":2,
		"byteOffset":8,
		"min":[1.0,
		1.0,
		1.0],
		"max":[1.0,
		1.0,
		1.0]
	}],
	"bufferViews":[{
		"buffer":0,
		"byteLength":144,
		"byteOffset":0,
		"target":34963
	},
	{
		"buffer":0,
		"byteLength":1152,
		"byteOffset":144,
		"target":34962,
		"byteStride":24
	},
	{
		"buffer":1,
		"byteLength":1260,
		"byteOffset":0,
		"target":34963
	},
	{
		"buffer":1,
		"byteLength":13944,
		"byteOffset":1260,
		"target":34962,
		"byteStride":24
	},
	{
		"buffer":2,
		"byteLength":48,
		"byteOffset":0,
		"target":34963
	},
	{
		"buffer":2,
		"byteLength":576,
		"byteOffset":48,
		"target":34962,
		"byteStride":24
	},
	{
		"buffer":3,
		"byteLength":24,
		"byteOffset":0,
		"target":34963
	},
	{
		"buffer":3,
		"byteLength":288,
		"byteOffset":24,
		"target":34962,
		"byteStride":24
	},
	{
		"buffer":4,
		"byteLength":32,
		"byteOffset":0
	},
	{
		"buffer":4,
		"byteLength":40,
		"byteOffset":32
	},
	{
		"buffer":4,
		"byteLength":32,
		"byteOffset":72
	}],
	"buffers":[{
		"uri":"data:application/octet-stream;base64,",
		"byteLength":1296
	},
	{
		"uri":"data:application/octet-stream;base64,",
		"byteLength":15204
	},
	{
		"uri":"data:application/octet-stream;base64,",
		"byteLength":624
	},
	{
		"uri":"data:application/octet-stream;base64,",
		"byteLength":312
	},
	{
		"uri":"data:application/octet-stream;base64,",
		"byteLength":104
	}],
	"materials":[{
		"pbrMetallicRoughness":{
			"baseColorFactor":[0.6933300000000005,
			0.6830999999999999,
			0.99,
			1.0],
			"metallicFactor":0.0,
			"roughnessFactor":0.5
		},
		"emissiveFactor":[0.0,
		0.0,
		0.0],
		"alphaMode":"OPAQUE",
		"doubleSided":false,
		"name":"Avion "
	},
	{
		"pbrMetallicRoughness":{
			"baseColorFactor":[0.76,
			0.37493333333333325,
			0.03799999999999995,
			1.0],
			"metallicFactor":0.0,
			"roughnessFactor":0.5
		},
		"emissiveFactor":[0.17,
		0.16070666666666676,
		0.030599999999999993],
		"alphaMode":"OPAQUE",
		"doubleSided":false,
		"name":"Mat"
	},
	{
		"pbrMetallicRoughness":{
			"baseColorFactor":[0.0,
			0.0,
			0.0,
			0.30999999999999996],
			"metallicFactor":0.0,
			"roughnessFactor":0.5
		},
		"emissiveFactor":[0.0,
		0.0,
		0.0],
		"alphaMode":"BLEND",
		"doubleSided":false,
		"name":"Vitre"
	}],
	"animations":[{
		"samplers":[{
			"input":12,
			"interpolation":"LINEAR",
			"output":13
		},
		{
			"input":14,
			"interpolation":"LINEAR",
			"output":15
		},
		{
			"input":16,
			"interpolation":"LINEAR",
			"output":17
		}],
		"channels":[{
			"sampler":0,
			"target":{
				"node":8,
				"path":"translation"
			}
		},
		{
			"sampler":1,
			"target":{
				"node":8,
				"path":"rotation"
			}
		},
		{
			"sampler":2,
			"target":{
				"node":8,
				"path":"scale"
			}
		}]
	}]
}